<?xml version="1.0" encoding="UTF-8"?>
<svg id="Layer_1" data-name="Layer 1" xmlns="http://www.w3.org/2000/svg" viewBox="0 0 566.93 566.93">
  <defs>
    <style>
      .cls-1 {
        fill: #ea0029;
      }

      .cls-2 {
        fill: #1226aa;
        font-family: Futura-Bold, Futura;
        font-size: 33.99px;
        font-weight: 700;
      }
    </style>
  </defs>
  <text class="cls-2" transform="translate(243.7 354.92)"><tspan x="0" y="0">TIPOGRAFIE</tspan></text>
  <g>
    <path class="cls-1" d="M131.93,313.19h-24.68v-77.38h34.49c8.69,0,15.55,2.25,20.56,6.74,5.09,4.5,7.63,10.32,7.63,17.47s-2.54,13.01-7.63,17.58c-5.01,4.5-11.87,6.74-20.56,6.74h-9.81v28.85Z"/>
    <path class="cls-1" d="M226.76,326.3c-7.74,7.81-17.47,11.72-29.18,11.72s-21.45-3.91-29.18-11.72c-7.74-7.81-11.61-17.32-11.61-28.52s3.87-20.71,11.61-28.52c7.74-7.81,17.47-11.72,29.18-11.72s21.45,3.91,29.18,11.72c7.74,7.81,11.61,17.32,11.61,28.52s-3.87,20.71-11.61,28.52Z"/>
    <polygon class="cls-1" points="279.49 284.48 279.49 241.49 256.9 241.49 256.9 200.32 325.57 200.32 325.57 241.49 302.88 241.49 302.88 284.48 279.49 284.48"/>
    <path class="cls-1" d="M317.07,306.58h-24.22l32.5-77.82h19.12l32.5,77.82h-24.34l-6.52-16.36h-22.52l-6.52,16.36Z"/>
    <g>
      <path class="cls-1" d="M249.45,272.39c-1.17-3.38-10.35-4.37-13.33-5.41-6.36-2.22-13.81-5.65-17.35-11.72l-.05-.08c-1.94-3.71-2.92-7.75-2.92-12.01,0-7.81,2.93-13.96,8.71-18.28,5.6-4.19,13.3-6.32,22.88-6.32s18.36,2.18,26.43,6.47l1.58.84-7.27,15.6c-1.82,0-6.58,0-11.24,0-3.38,0-6.95-.14-10.29.3-.49.07-1,.13-1.44.36-.71.36-1.19,1.13-1.19,1.93-.02,2.13,2.59,2.22,4.13,2.66,2.29.66,4.59,1.29,6.86,1.99,4.37,1.36,8.6,3.15,12.53,5.49,1.91,1.14,3.74,2.42,5.42,3.87,4.53,3.9,6.83,9.48,6.83,16.58,0,7.93-3.16,14.4-9.38,19.23-6,4.63-13.87,6.98-23.39,6.98-11.98,0-22.17-2.83-30.29-8.42l-1.43-.98,7.62-15.67,1.26-2.66,1.85.93c1.65.83,3.48,1.62,5.44,2.35,5.07,1.89,13.29,5.4,17.18-.11.8-1.14,1.29-2.62.84-3.94"/>
      <rect class="cls-1" x="238.16" y="287.05" width="24.09" height="24.09" rx="12.04" ry="12.04"/>
    </g>
  </g>
</svg>